<mxfile host="app.diagrams.net" modified="2021-11-03T17:47:24.290Z" agent="5.0 (Windows NT 10.0; Win64; x64) AppleWebKit/537.36 (KHTML, like Gecko) Chrome/95.0.4638.54 Safari/537.36 Edg/95.0.1020.40" etag="tiNg05sh89d0NKCuKljB" version="15.6.6" type="github">
  <diagram id="v7uGd9ZqIzJU427HWUS0" name="Page-1">
    <mxGraphModel dx="1004" dy="579" grid="1" gridSize="10" guides="1" tooltips="1" connect="1" arrows="1" fold="1" page="1" pageScale="1" pageWidth="850" pageHeight="1100" math="0" shadow="0">
      <root>
        <mxCell id="0" />
        <mxCell id="1" parent="0" />
        <mxCell id="UmWoeY4lXuOOQWgM7MxG-44" value="" style="rounded=0;whiteSpace=wrap;html=1;labelBackgroundColor=default;fontColor=default;strokeColor=default;fillColor=default;" vertex="1" parent="1">
          <mxGeometry x="350" y="15" width="440" height="70" as="geometry" />
        </mxCell>
        <mxCell id="UmWoeY4lXuOOQWgM7MxG-1" value="select values&lt;br&gt;e.g., app-customer/app-policy" style="rounded=1;whiteSpace=wrap;html=1;fillColor=default;strokeColor=default;fontColor=default;" vertex="1" parent="1">
          <mxGeometry x="20" y="140" width="120" height="60" as="geometry" />
        </mxCell>
        <mxCell id="UmWoeY4lXuOOQWgM7MxG-7" value="propertyname to apply filters&lt;br&gt;e.g., name,subtype" style="rounded=1;whiteSpace=wrap;html=1;fontColor=default;strokeColor=default;fillColor=default;" vertex="1" parent="1">
          <mxGeometry x="190" y="140" width="120" height="60" as="geometry" />
        </mxCell>
        <mxCell id="UmWoeY4lXuOOQWgM7MxG-8" value="show 7 filter options and give the ability to enter the string for filtering&lt;br&gt;e.g.,startswith : &#39;app-&#39;&lt;br&gt;,contains/includes: &#39;manage&#39;, endswith:&#39;ment&#39;" style="rounded=1;whiteSpace=wrap;html=1;fontColor=default;strokeColor=default;fillColor=default;" vertex="1" parent="1">
          <mxGeometry x="155" y="270" width="190" height="80" as="geometry" />
        </mxCell>
        <mxCell id="UmWoeY4lXuOOQWgM7MxG-9" value="" style="endArrow=classic;html=1;rounded=0;labelBackgroundColor=default;fontColor=default;strokeColor=default;fillColor=default;" edge="1" parent="1">
          <mxGeometry width="50" height="50" relative="1" as="geometry">
            <mxPoint x="250" y="200" as="sourcePoint" />
            <mxPoint x="250" y="270" as="targetPoint" />
          </mxGeometry>
        </mxCell>
        <mxCell id="UmWoeY4lXuOOQWgM7MxG-10" value="src value&lt;br&gt;e.g., LGDP01,&lt;span style=&quot;color: rgb(22 , 22 , 22) ; font-family: &amp;#34;ibm plex sans regular&amp;#34; , sans-serif ; font-size: 14px ; letter-spacing: -0.75px ; background-color: rgb(255 , 255 , 255)&quot;&gt;LGWEBST5&lt;/span&gt;" style="rounded=1;whiteSpace=wrap;html=1;fillColor=default;strokeColor=default;fontColor=default;" vertex="1" parent="1">
          <mxGeometry x="380" y="140" width="120" height="60" as="geometry" />
        </mxCell>
        <mxCell id="UmWoeY4lXuOOQWgM7MxG-11" value="" style="endArrow=classic;html=1;rounded=0;fontColor=default;exitX=0.5;exitY=1;exitDx=0;exitDy=0;strokeColor=default;labelBackgroundColor=default;fillColor=default;entryX=0.5;entryY=0;entryDx=0;entryDy=0;" edge="1" parent="1" source="UmWoeY4lXuOOQWgM7MxG-10" target="UmWoeY4lXuOOQWgM7MxG-12">
          <mxGeometry width="50" height="50" relative="1" as="geometry">
            <mxPoint x="570" y="420" as="sourcePoint" />
            <mxPoint x="320" y="260" as="targetPoint" />
          </mxGeometry>
        </mxCell>
        <mxCell id="UmWoeY4lXuOOQWgM7MxG-12" value="propertyname to apply filters&lt;br&gt;e.g., name,subtype" style="rounded=1;whiteSpace=wrap;html=1;fontColor=default;strokeColor=default;fillColor=default;" vertex="1" parent="1">
          <mxGeometry x="380" y="270" width="120" height="60" as="geometry" />
        </mxCell>
        <mxCell id="UmWoeY4lXuOOQWgM7MxG-13" value="show 7 filter options and give the ability to enter the string for filtering&lt;br&gt;e.g.,startswith : &#39;LG&#39;&lt;br&gt;,contains/includes: &#39;PD&#39;, endswith:&#39;02&#39;" style="rounded=1;whiteSpace=wrap;html=1;fontColor=default;strokeColor=default;fillColor=default;" vertex="1" parent="1">
          <mxGeometry x="340" y="390" width="190" height="80" as="geometry" />
        </mxCell>
        <mxCell id="UmWoeY4lXuOOQWgM7MxG-14" value="" style="endArrow=classic;html=1;rounded=0;labelBackgroundColor=default;fontColor=default;strokeColor=default;fillColor=default;" edge="1" parent="1" source="UmWoeY4lXuOOQWgM7MxG-12">
          <mxGeometry width="50" height="50" relative="1" as="geometry">
            <mxPoint x="320" y="320" as="sourcePoint" />
            <mxPoint x="440" y="390" as="targetPoint" />
          </mxGeometry>
        </mxCell>
        <mxCell id="UmWoeY4lXuOOQWgM7MxG-16" value="" style="endArrow=classic;html=1;rounded=0;fontColor=default;exitX=0.5;exitY=1;exitDx=0;exitDy=0;strokeColor=default;labelBackgroundColor=default;fillColor=default;" edge="1" parent="1">
          <mxGeometry width="50" height="50" relative="1" as="geometry">
            <mxPoint x="700" y="190" as="sourcePoint" />
            <mxPoint x="700" y="260" as="targetPoint" />
          </mxGeometry>
        </mxCell>
        <mxCell id="UmWoeY4lXuOOQWgM7MxG-18" value="show 7 filter options and give the ability to enter the string for filtering&lt;br&gt;&lt;span style=&quot;background-color: rgb(248 , 249 , 250)&quot;&gt;e.g.,startswith :&#39;C&#39;&lt;/span&gt;&lt;br style=&quot;background-color: rgb(248 , 249 , 250)&quot;&gt;&lt;span style=&quot;background-color: rgb(248 , 249 , 250)&quot;&gt;,contains/includes: &#39;O&#39;, endswith:&#39;L&#39;&lt;/span&gt;" style="rounded=1;whiteSpace=wrap;html=1;fontColor=default;strokeColor=default;fillColor=default;labelBackgroundColor=default;" vertex="1" parent="1">
          <mxGeometry x="620" y="390" width="190" height="80" as="geometry" />
        </mxCell>
        <mxCell id="UmWoeY4lXuOOQWgM7MxG-19" value="" style="endArrow=classic;html=1;rounded=0;labelBackgroundColor=default;fontColor=default;strokeColor=default;fillColor=default;" edge="1" parent="1">
          <mxGeometry width="50" height="50" relative="1" as="geometry">
            <mxPoint x="700" y="320" as="sourcePoint" />
            <mxPoint x="700" y="390" as="targetPoint" />
          </mxGeometry>
        </mxCell>
        <mxCell id="UmWoeY4lXuOOQWgM7MxG-20" value="Target Value&lt;br&gt;e.g.,POLICY,CLAIM" style="rounded=1;whiteSpace=wrap;html=1;fillColor=default;strokeColor=default;fontColor=default;labelBackgroundColor=default;" vertex="1" parent="1">
          <mxGeometry x="630" y="130" width="120" height="60" as="geometry" />
        </mxCell>
        <mxCell id="UmWoeY4lXuOOQWgM7MxG-21" value="Srctype&lt;br&gt;e.g., program" style="rounded=1;whiteSpace=wrap;html=1;fillColor=default;strokeColor=default;fontColor=default;" vertex="1" parent="1">
          <mxGeometry x="375" y="20" width="120" height="60" as="geometry" />
        </mxCell>
        <mxCell id="UmWoeY4lXuOOQWgM7MxG-22" value="&lt;span style=&quot;background-color: rgb(255 , 255 , 255)&quot;&gt;Target type&lt;/span&gt;&lt;br&gt;&lt;span style=&quot;background-color: rgb(255 , 255 , 255)&quot;&gt;e.g., table&lt;/span&gt;" style="rounded=1;whiteSpace=wrap;html=1;fillColor=default;strokeColor=default;fontColor=default;" vertex="1" parent="1">
          <mxGeometry x="630" y="20" width="120" height="60" as="geometry" />
        </mxCell>
        <mxCell id="UmWoeY4lXuOOQWgM7MxG-23" value="propertyname to apply filters&lt;br&gt;e.g., name,subtype" style="rounded=1;whiteSpace=wrap;html=1;fontColor=default;strokeColor=default;fillColor=default;" vertex="1" parent="1">
          <mxGeometry x="640" y="260" width="120" height="60" as="geometry" />
        </mxCell>
        <mxCell id="UmWoeY4lXuOOQWgM7MxG-34" style="edgeStyle=orthogonalEdgeStyle;rounded=0;orthogonalLoop=1;jettySize=auto;html=1;entryX=0.407;entryY=0.01;entryDx=0;entryDy=0;entryPerimeter=0;labelBackgroundColor=default;fontColor=default;strokeColor=default;fillColor=default;" edge="1" parent="1" source="UmWoeY4lXuOOQWgM7MxG-24" target="UmWoeY4lXuOOQWgM7MxG-1">
          <mxGeometry relative="1" as="geometry" />
        </mxCell>
        <mxCell id="UmWoeY4lXuOOQWgM7MxG-35" style="edgeStyle=orthogonalEdgeStyle;rounded=0;orthogonalLoop=1;jettySize=auto;html=1;entryX=0.583;entryY=0;entryDx=0;entryDy=0;entryPerimeter=0;labelBackgroundColor=default;fontColor=default;strokeColor=default;fillColor=default;" edge="1" parent="1" source="UmWoeY4lXuOOQWgM7MxG-24" target="UmWoeY4lXuOOQWgM7MxG-7">
          <mxGeometry relative="1" as="geometry" />
        </mxCell>
        <mxCell id="UmWoeY4lXuOOQWgM7MxG-24" value="select type&lt;br&gt;e.g., Application/Increment" style="rounded=1;whiteSpace=wrap;html=1;fillColor=default;strokeColor=default;fontColor=default;" vertex="1" parent="1">
          <mxGeometry x="120" y="20" width="120" height="60" as="geometry" />
        </mxCell>
        <mxCell id="UmWoeY4lXuOOQWgM7MxG-36" value="and / or" style="text;html=1;align=center;verticalAlign=middle;resizable=0;points=[];autosize=1;strokeColor=none;fillColor=none;fontColor=default;" vertex="1" parent="1">
          <mxGeometry x="120" y="120" width="60" height="20" as="geometry" />
        </mxCell>
      </root>
    </mxGraphModel>
  </diagram>
</mxfile>
